<?xml version="1.0" encoding="utf-8"?>
<!-- Generator: Adobe Illustrator 16.0.0, SVG Export Plug-In . SVG Version: 6.00 Build 0)  -->
<!DOCTYPE svg PUBLIC "-//W3C//DTD SVG 1.1//EN" "http://www.w3.org/Graphics/SVG/1.1/DTD/svg11.dtd">
<svg version="1.1" id="Слой_1" xmlns="http://www.w3.org/2000/svg" xmlns:xlink="http://www.w3.org/1999/xlink" x="0px" y="0px"
	 width="15px" height="47.75px" viewBox="0 0 15 47.75" enable-background="new 0 0 15 47.75" xml:space="preserve">
<linearGradient id="SVGID_1_" gradientUnits="userSpaceOnUse" x1="-3.04" y1="38.3496" x2="17.8107" y2="2.2351">
	<stop  offset="0" style="stop-color:#FFFFFF"/>
	<stop  offset="0" style="stop-color:#4F4F4E"/>
	<stop  offset="0.1408" style="stop-color:#41403F"/>
	<stop  offset="0.4549" style="stop-color:#0A0A0A"/>
	<stop  offset="0.6562" style="stop-color:#030303"/>
	<stop  offset="1" style="stop-color:#000000"/>
</linearGradient>
<path fill="url(#SVGID_1_)" d="M13.939,0v39.709c0,0.963-0.764,1.736-1.717,1.736H2.778c-0.945,0-1.717-0.773-1.717-1.736V0H13.939z
	"/>
<g>
	<linearGradient id="SVGID_2_" gradientUnits="userSpaceOnUse" x1="2.4048" y1="23.3511" x2="0" y2="23.3511">
		<stop  offset="0" style="stop-color:#616060"/>
		<stop  offset="0" style="stop-color:#585857"/>
		<stop  offset="0.1843" style="stop-color:#585857"/>
		<stop  offset="0.4156" style="stop-color:#343434"/>
		<stop  offset="0.6488" style="stop-color:#181817"/>
		<stop  offset="0.8517" style="stop-color:#060606"/>
		<stop  offset="1" style="stop-color:#000000"/>
	</linearGradient>
	<path fill="url(#SVGID_2_)" d="M2.405,39.26c-0.027-0.133-0.046-0.271-0.046-0.416V0H0v45.75c0,0.348,0.096,0.668,0.25,0.951
		v-0.838L2.405,39.26z"/>
	<linearGradient id="SVGID_3_" gradientUnits="userSpaceOnUse" x1="12.5952" y1="23.3525" x2="14.9995" y2="23.3525">
		<stop  offset="0" style="stop-color:#0C0C0B"/>
		<stop  offset="0.0636" style="stop-color:#090908"/>
		<stop  offset="0.3114" style="stop-color:#020202"/>
		<stop  offset="1" style="stop-color:#000000"/>
	</linearGradient>
	<path fill="url(#SVGID_3_)" d="M12.641,0v38.844c0,0.145-0.019,0.283-0.046,0.418l2.154,6.602v0.842C14.904,46.42,15,46.1,15,45.75
		V0H12.641z"/>
	<linearGradient id="SVGID_4_" gradientUnits="userSpaceOnUse" x1="7.5" y1="39.2598" x2="7.5" y2="47.75">
		<stop  offset="0" style="stop-color:#FFFFFF"/>
		<stop  offset="0" style="stop-color:#545453"/>
		<stop  offset="0.0675" style="stop-color:#484847"/>
		<stop  offset="0.1373" style="stop-color:#424140"/>
		<stop  offset="0.2128" style="stop-color:#3A3A39"/>
		<stop  offset="0.4462" style="stop-color:#1C1C1B"/>
		<stop  offset="0.6314" style="stop-color:#0A0A0A"/>
		<stop  offset="0.7059" style="stop-color:#040404"/>
	</linearGradient>
	<path fill="url(#SVGID_4_)" d="M12.595,39.262c-0.15,0.736-0.682,1.281-1.324,1.281H3.73c-0.639,0-1.175-0.545-1.325-1.283
		L0.25,45.863v0.838C0.59,47.324,1.244,47.75,2,47.75h11c0.762,0,1.412-0.424,1.75-1.045v-0.842L12.595,39.262z"/>
</g>
</svg>
