<?xml version="1.0" encoding="utf-8"?>
<!-- Generator: Adobe Illustrator 16.0.0, SVG Export Plug-In . SVG Version: 6.00 Build 0)  -->
<!DOCTYPE svg PUBLIC "-//W3C//DTD SVG 1.1//EN" "http://www.w3.org/Graphics/SVG/1.1/DTD/svg11.dtd">
<svg version="1.1" id="Слой_1" xmlns="http://www.w3.org/2000/svg" xmlns:xlink="http://www.w3.org/1999/xlink" x="0px" y="0px"
	 width="15px" height="47.75px" viewBox="0 0 15 47.75" enable-background="new 0 0 15 47.75" xml:space="preserve">
<linearGradient id="SVGID_1_" gradientUnits="userSpaceOnUse" x1="7.4995" y1="41.4453" x2="7.4995" y2="4.882813e-004">
	<stop  offset="0" style="stop-color:#FFFFFF"/>
	<stop  offset="0" style="stop-color:#4F4F4E"/>
	<stop  offset="0.0255" style="stop-color:#41403F"/>
	<stop  offset="0.0824" style="stop-color:#0A0A0A"/>
	<stop  offset="0.4213" style="stop-color:#030303"/>
	<stop  offset="1" style="stop-color:#000000"/>
</linearGradient>
<path fill="url(#SVGID_1_)" d="M13.939,0v39.709c0,0.963-0.764,1.736-1.717,1.736H2.778c-0.945,0-1.717-0.773-1.717-1.736V0H13.939z
	"/>
<g>
	<linearGradient id="SVGID_2_" gradientUnits="userSpaceOnUse" x1="2.4058" y1="23.3511" x2="9.765625e-004" y2="23.3511">
		<stop  offset="0" style="stop-color:#616060"/>
		<stop  offset="0" style="stop-color:#585857"/>
		<stop  offset="0" style="stop-color:#585857"/>
		<stop  offset="0.0056" style="stop-color:#565655"/>
		<stop  offset="0.0771" style="stop-color:#3B3B3A"/>
		<stop  offset="0.1581" style="stop-color:#252525"/>
		<stop  offset="0.2539" style="stop-color:#141414"/>
		<stop  offset="0.3724" style="stop-color:#090909"/>
		<stop  offset="0.5385" style="stop-color:#020202"/>
		<stop  offset="1" style="stop-color:#000000"/>
	</linearGradient>
	<path fill="url(#SVGID_2_)" d="M2.406,39.26c-0.027-0.133-0.046-0.271-0.046-0.416V0H0.001v45.75c0,0.348,0.096,0.668,0.25,0.951
		v-0.838L2.406,39.26z"/>
	<linearGradient id="SVGID_3_" gradientUnits="userSpaceOnUse" x1="12.5962" y1="23.3525" x2="15.0005" y2="23.3525">
		<stop  offset="0" style="stop-color:#0C0C0B"/>
		<stop  offset="0.0636" style="stop-color:#090908"/>
		<stop  offset="0.3114" style="stop-color:#020202"/>
		<stop  offset="1" style="stop-color:#000000"/>
	</linearGradient>
	<path fill="url(#SVGID_3_)" d="M12.642,0v38.844c0,0.145-0.019,0.283-0.046,0.418l2.154,6.602v0.842C14.905,46.42,15,46.1,15,45.75
		V0H12.642z"/>
	<linearGradient id="SVGID_4_" gradientUnits="userSpaceOnUse" x1="7.501" y1="39.2598" x2="7.501" y2="47.75">
		<stop  offset="0" style="stop-color:#424140"/>
		<stop  offset="0.0965" style="stop-color:#3A3A39"/>
		<stop  offset="0.3948" style="stop-color:#1C1C1B"/>
		<stop  offset="0.6314" style="stop-color:#0A0A0A"/>
		<stop  offset="0.7059" style="stop-color:#040404"/>
	</linearGradient>
	<path fill="url(#SVGID_4_)" d="M12.596,39.262c-0.15,0.736-0.682,1.281-1.324,1.281H3.731c-0.639,0-1.175-0.545-1.325-1.283
		l-2.154,6.604v0.838c0.34,0.623,0.993,1.049,1.75,1.049h11c0.762,0,1.412-0.424,1.75-1.045v-0.842L12.596,39.262z"/>
</g>
</svg>
