<?xml version="1.0" encoding="utf-8"?>
<!-- Generator: Adobe Illustrator 16.0.0, SVG Export Plug-In . SVG Version: 6.00 Build 0)  -->
<!DOCTYPE svg PUBLIC "-//W3C//DTD SVG 1.1//EN" "http://www.w3.org/Graphics/SVG/1.1/DTD/svg11.dtd">
<svg version="1.1" id="Слой_1" xmlns="http://www.w3.org/2000/svg" xmlns:xlink="http://www.w3.org/1999/xlink" x="0px" y="0px"
	 width="29.68px" height="84.532px" viewBox="0 0 29.68 84.532" enable-background="new 0 0 29.68 84.532" xml:space="preserve">
<path id="clef" fill="#010202" d="M15.504,65.043c-4.344-0.252-8.781-2.979-11.435-6.105c-3.075-3.625-4.345-8.559-4.02-12.605
	c0.955-11.899,13.894-18.932,18.683-24.128c3.207-3.479,3.879-5.175,4.596-6.964c1.385-3.463,1.609-7.521-1.141-7.824
	c-2.623-0.29-4.783,3.837-5.746,6.658c-0.867,2.537-1.444,5.082-0.922,8.905c0.234,1.718,6.688,49.665,6.795,50.409
	c1.088,7.426-3.16,10.5-7.497,11.047c-9.362,1.181-12.366-8.336-8.171-11.949c3.23-2.778,7.932-0.394,7.677,4.185
	c-0.225,4.051-4.196,4.17-5.212,4.078c1.559,2.795,13.306,4.254,11.501-8.371c-0.252-1.775-6.215-46.833-6.362-47.841
	c-1.095-7.548-1.262-13.523,2.672-20.495c1.451-2.574,3.746-4.235,4.873-4.018c0.246,0.047,0.494,0.139,0.688,0.34
	c3.018,3.108,3.941,10.001,3.611,13.961c-0.338,4.054-0.527,8.251-4.559,13.146c-1.561,1.895-6.32,6.067-9.05,8.464
	c-3.835,3.368-6.616,6.31-8.123,9.857c-1.69,3.987-1.978,9.01,1.844,13.465c2.197,2.52,5.844,4.305,8.913,4.344
	c8.532,0.104,11.024-4.104,11.104-8.863c0.131-7.844-9.338-10.811-13.231-5.416c-2.258,3.127-1.266,6.418,0.251,7.982
	c0.521,0.537,1.102,0.945,1.65,1.176c0.199,0.084,0.667,0.301,0.537,0.621c-0.112,0.266-0.327,0.277-0.522,0.256
	c-2.455-0.295-5.174-2.643-5.843-6.68c-0.974-5.883,4.218-12.859,11.626-11.718c4.854,0.748,9.355,4.921,8.961,12.696
	C29.32,60.313,23.797,65.527,15.504,65.043z"/>
</svg>
