<?xml version="1.0" encoding="utf-8"?>
<!-- Generator: Adobe Illustrator 16.0.0, SVG Export Plug-In . SVG Version: 6.00 Build 0)  -->
<!DOCTYPE svg PUBLIC "-//W3C//DTD SVG 1.1//EN" "http://www.w3.org/Graphics/SVG/1.1/DTD/svg11.dtd">
<svg version="1.1" id="Слой_1" xmlns="http://www.w3.org/2000/svg" xmlns:xlink="http://www.w3.org/1999/xlink" x="0px" y="0px"
	 width="24.348px" height="82px" viewBox="0 0 24.348 82" enable-background="new 0 0 24.348 82" xml:space="preserve">
<path id="clef" fill="#010202" d="M12.721,61.184c-3.565-0.209-7.204-2.445-9.382-5.012c-2.521-2.973-3.563-7.02-3.299-10.34
	c0.784-9.763,11.398-15.531,15.327-19.794c2.631-2.854,3.184-4.246,3.771-5.712c1.137-2.841,1.32-6.17-0.936-6.419
	c-2.151-0.238-3.924,3.147-4.715,5.462c-0.71,2.081-1.184,4.169-0.756,7.305c0.192,1.409,5.486,40.743,5.575,41.354
	c0.892,6.092-2.594,8.613-6.149,9.063c-7.682,0.969-10.146-6.838-6.703-9.803c2.649-2.279,6.505-0.322,6.297,3.434
	c-0.185,3.324-3.441,3.422-4.274,3.346c1.278,2.293,10.916,3.492,9.436-6.867c-0.208-1.457-5.1-38.42-5.22-39.247
	c-0.896-6.192-1.035-11.093,2.192-16.813c1.189-2.112,3.072-3.474,3.997-3.296c0.201,0.039,0.405,0.113,0.563,0.278
	c2.477,2.55,3.233,8.205,2.963,11.454c-0.276,3.325-0.433,6.769-3.738,10.784c-1.28,1.554-5.186,4.977-7.427,6.944
	c-3.146,2.763-5.427,5.175-6.663,8.086c-1.387,3.272-1.622,7.394,1.514,11.048c1.803,2.064,4.794,3.529,7.312,3.563
	c7,0.086,9.043-3.365,9.108-7.27c0.107-6.438-7.659-8.87-10.854-4.443c-1.853,2.564-1.039,5.264,0.205,6.549
	c0.428,0.439,0.904,0.773,1.354,0.963c0.163,0.07,0.548,0.248,0.438,0.512c-0.092,0.219-0.268,0.227-0.429,0.211
	c-2.014-0.244-4.243-2.168-4.792-5.482c-0.799-4.826,3.46-10.549,9.539-9.614c3.979,0.614,7.673,4.038,7.35,10.417
	C24.053,57.301,19.524,61.578,12.721,61.184z"/>
</svg>
